<svg width="15" height="15" viewBox="0 0 15 15" fill="none" xmlns="http://www.w3.org/2000/svg">
<g clip-path="url(#clip0_882_31)">
<path d="M14.8628 12.0503L10.3122 7.49972L14.8628 2.9491C14.9121 2.89988 14.9472 2.84269 14.9702 2.78175C15.0325 2.61488 14.9969 2.42035 14.8628 2.28628L12.7132 0.136595C12.5791 0.00253285 12.3841 -0.0326234 12.2177 0.0292516C12.1568 0.0517516 12.0996 0.0873766 12.0503 0.136127L7.49972 4.68675L2.9491 0.136127C2.89988 0.0873766 2.84269 0.0517516 2.78175 0.0292516C2.61488 -0.0330921 2.42035 0.00253285 2.28628 0.136595L0.136595 2.28628C0.00253285 2.42035 -0.0326234 2.61535 0.0292516 2.78175C0.0522204 2.84269 0.0873766 2.89988 0.136595 2.9491L4.68722 7.49972L0.136595 12.0503C0.0878454 12.0996 0.0522204 12.1568 0.0292516 12.2177C-0.0330921 12.3841 0.00253285 12.5791 0.136595 12.7132L2.28628 14.8628C2.42035 14.9969 2.61535 15.0321 2.78175 14.9702C2.84269 14.9472 2.89988 14.9121 2.9491 14.8628L7.49972 10.3122L12.0503 14.8628C12.0996 14.9121 12.1568 14.9472 12.2177 14.9702C12.3846 15.0325 12.5791 14.9969 12.7132 14.8628L14.8628 12.7132C14.9969 12.5791 15.0325 12.3841 14.9702 12.2177C14.9472 12.1568 14.9121 12.0996 14.8628 12.0503Z" fill="#5A0319"/>
</g>
<defs>
<clipPath id="clip0_882_31">
<rect width="15" height="15" fill="white"/>
</clipPath>
</defs>
</svg>
