<svg width="15" height="15" viewBox="0 0 15 15" fill="none" xmlns="http://www.w3.org/2000/svg">
<g clip-path="url(#clip0_882_3)">
<path d="M7.5 15C3.35812 15 0 11.6419 0 7.5C0 3.35812 3.35812 0 7.5 0C11.6419 0 15 3.35812 15 7.5C15 11.6419 11.6419 15 7.5 15ZM13.5788 6.87141C13.5909 6.86531 13.5975 6.855 13.6022 6.83859C13.612 6.89062 13.6359 6.93656 13.6744 6.97031C13.6753 6.975 13.673 6.97406 13.6753 6.98063C13.6791 6.98063 13.6819 6.97781 13.6852 6.97781C13.7245 7.00969 13.7733 7.03125 13.8281 7.03125C13.9125 7.03125 13.9828 6.98437 14.0241 6.91828C14.0269 6.92156 14.0316 6.92578 14.0339 6.92953C14.0334 6.92203 14.0325 6.91453 14.0316 6.90703C14.0498 6.87375 14.0625 6.83719 14.0625 6.79688C14.0625 6.6675 13.957 6.5625 13.8281 6.5625C13.7456 6.5625 13.6772 6.6075 13.635 6.67125C13.6331 6.66984 13.635 6.66422 13.6298 6.66609C13.6359 6.64828 13.6195 6.60281 13.5938 6.55406V6.79688C13.5938 6.82359 13.5863 6.8475 13.5788 6.87141ZM2.80875 6.80109C2.80875 6.73031 2.6475 6.60984 2.60578 6.60984C2.60578 6.59719 2.54016 6.45281 2.51531 6.45281C2.51531 6.40406 2.34422 6.18516 2.31703 6.28078C2.29922 6.34266 2.44781 6.42609 2.44781 6.49781C2.47547 6.49781 2.59172 6.71812 2.61469 6.75656C2.86875 7.18594 2.42484 6.8925 2.42484 6.71062C2.36812 6.6825 2.27859 6.46641 2.27859 6.40734C2.24531 6.38062 2.14688 6.17203 2.15484 6.17203C2.15484 6.03516 2.07938 5.96953 1.92938 5.96953C1.92234 5.95594 1.79625 5.77875 1.79391 5.77875C1.79391 5.7225 1.69266 5.54813 1.63641 5.52047C1.63641 5.40375 1.57641 5.25984 1.60313 5.13891C1.60313 5.01188 1.59656 4.86797 1.55344 4.73766C1.16203 5.57813 0.9375 6.51187 0.9375 7.5C0.9375 10.3317 2.73469 12.7378 5.24813 13.658C5.25094 13.4255 5.26828 13.147 5.32125 13.147C5.32125 13.1123 5.35078 12.967 5.3775 12.967C5.3775 12.878 5.38828 12.7706 5.3775 12.6638C5.34422 12.5967 5.42156 12.5109 5.445 12.4055C5.57484 12.3403 5.48297 11.6869 5.58094 11.6869C5.58094 11.3602 5.65406 11.1698 5.60297 10.867C5.62781 10.867 5.45531 10.6837 5.45672 10.687C5.29125 10.687 5.17547 10.4217 5.17547 10.3055C5.15953 10.2544 5.11875 10.178 5.11875 10.1147C5.15672 10.1147 4.88203 9.71344 4.88203 9.72141C4.73672 9.64078 4.89 9.52828 4.90453 9.39609C4.77844 9.35438 4.90594 9.01406 4.96078 9.01406C4.96641 8.97094 4.98891 8.94141 5.02875 8.92453C5.05687 9.03656 5.18766 8.86875 5.085 8.86875C5.085 8.79469 5.07656 8.63625 5.085 8.59922C5.085 8.48484 4.98375 8.26078 4.905 8.49797C4.82062 8.45625 4.60781 8.46375 4.58953 8.32969C4.60266 8.26359 4.46812 8.12859 4.42078 8.10516C4.46484 7.98984 4.1925 7.83562 4.09406 7.83562C4.09406 7.81078 4.04203 7.82203 4.02656 7.79063C3.92625 7.79063 3.90328 7.65563 3.78984 7.65563C3.65906 7.65563 3.52734 7.56609 3.40688 7.56609C3.36656 7.48594 3.17953 7.51734 3.13641 7.43109C3.03844 7.43109 3 7.24547 2.99719 7.17703C2.99297 7.09266 2.92594 6.80109 2.80875 6.80109ZM12.3037 3.03938C12.3028 3.04219 12.3047 3.04031 12.3 3.04969C12.307 3.04969 12.3155 3.05766 12.3234 3.06094C12.3164 3.05391 12.3103 3.04688 12.3037 3.03938ZM12.4448 3.19453C12.4612 3.22641 12.4734 3.25594 12.4697 3.27422C12.4861 3.27469 12.4941 3.26578 12.5072 3.2625C12.487 3.23953 12.465 3.21797 12.4448 3.19453ZM12.8522 5.33016C12.8597 5.12766 12.6834 5.16141 12.6277 5.04891C12.5695 5.04891 12.5484 5.00391 12.4697 5.00391C12.4186 4.98656 12.3783 4.99875 12.3487 5.04047C12.2283 5.08641 12.3009 4.98188 12.2105 4.98188C12.2147 4.86609 12.1687 4.83422 12.0412 4.84688C11.9681 5.01188 11.8556 5.11078 11.8725 5.29641C11.9264 5.30859 11.917 5.32078 11.9062 5.37469C11.978 5.37844 12.413 5.35219 12.413 5.30719C12.428 5.30719 12.5034 5.46234 12.5034 5.32969C12.5639 5.32969 12.5958 5.47172 12.7402 5.43047C12.7402 5.45953 12.9811 5.33016 12.8522 5.33016ZM12.8752 7.72219C12.8836 7.68094 12.8545 7.66266 12.8302 7.62094C12.8944 7.62094 12.6272 7.12547 12.6272 7.04813C12.5864 7.02797 12.5344 6.88641 12.525 6.83484C12.4702 6.79828 12.4134 6.67828 12.39 6.61031C12.3342 6.57328 12.1983 6.40734 12.1762 6.32953C12.2569 6.33844 12.3788 6.35484 12.3788 6.25078C12.3244 6.25078 12.3164 6.18375 12.368 6.18375C12.3511 6.11484 12.4045 6.06516 12.4163 6.01125C12.4303 5.94609 12.458 5.84578 12.458 5.76797C12.3806 5.76797 12.3619 5.78109 12.3005 5.80172C12.3005 5.84719 12.1631 5.79047 12.143 5.79047C12.1134 5.73141 11.8992 5.86734 11.8392 5.74547C11.7422 5.65781 11.7684 5.59031 11.737 5.46656C11.7211 5.40375 11.6353 5.4 11.5833 5.38969C11.4366 5.36109 11.5425 5.56453 11.5345 5.61094C11.6245 5.61094 11.4778 5.7225 11.4778 5.77922C11.3259 5.74641 11.3766 5.57719 11.287 5.53219C11.2603 5.48719 11.2814 5.45344 11.2191 5.45344C11.2191 5.39344 11.2509 5.28469 11.1853 5.26266C11.1853 5.23359 11.0578 5.22188 11.0391 5.18391C10.9584 5.18391 10.7709 4.87922 10.7133 4.98188C10.6772 5.0475 10.7437 5.06344 10.7573 5.11688C10.8741 5.09391 10.8628 5.30906 11.0053 5.28516C11.0053 5.31516 11.0091 5.34563 11.0161 5.37516C11.1216 5.35031 11.1094 5.45344 11.1623 5.45344C11.1239 5.50453 11.002 5.37187 11.0353 5.48344C11.0545 5.54812 11.0438 5.60344 10.9598 5.66672C10.9598 5.59687 10.9542 5.40844 10.8811 5.40844C10.8314 5.30906 10.6838 5.33297 10.6214 5.24016C10.5708 5.24016 10.5511 5.08266 10.4639 5.07187C10.4475 5.09484 10.3861 5.11688 10.3622 5.11688C10.3148 5.21203 10.0472 5.12672 10.0472 5.13937C10.043 5.14031 9.89719 5.49656 9.88875 5.54344C9.87234 5.64422 9.79125 5.64609 9.76688 5.74172C9.75469 5.78953 9.46078 5.76703 9.46078 5.80219C9.33375 5.76 9.22406 5.67094 9.22406 5.53266C9.21375 5.53266 9.24797 5.17969 9.26953 5.12812C9.29531 5.13516 9.30047 5.14406 9.315 5.17313C9.39281 5.14406 9.57422 5.19234 9.57422 5.10563C9.64969 5.1075 9.67219 5.1375 9.64172 5.19562C9.71203 5.20875 9.83344 5.22656 9.83344 5.12812C9.79219 5.12812 9.78797 5.12437 9.78797 5.08312C9.92297 4.94297 9.68672 4.81641 9.68672 4.74656C9.63891 4.73063 9.54141 4.62703 9.61078 4.66594C9.66938 4.69828 9.88359 4.76531 9.79922 4.62281C9.80484 4.62094 9.80859 4.61719 9.81 4.61203C9.83391 4.62891 9.93469 4.7325 9.93469 4.63453C9.96234 4.63453 10.0692 4.56703 9.97969 4.56703C9.98813 4.51641 9.98625 4.47422 9.99047 4.44328C10.1334 4.52016 10.0537 4.39078 10.1259 4.3425C10.1259 4.43578 10.2028 4.2975 10.2497 4.2975C10.3055 4.21453 10.433 4.27875 10.4639 4.185C10.395 4.1625 10.4077 3.99 10.4077 3.92719C10.4906 3.94078 10.583 3.81516 10.5956 3.90141C10.6003 3.93469 10.6045 4.02656 10.6214 4.03922C10.7447 4.10391 10.7119 4.00219 10.7119 3.93844C10.6706 3.93844 10.6158 3.79406 10.6102 3.72469C10.5764 3.72938 10.522 3.74344 10.5084 3.76922C10.3856 3.76922 10.3022 3.72469 10.2047 3.72469C10.1972 3.70969 10.08 3.57844 10.0922 3.57844C10.0238 3.46078 10.1606 3.495 10.1822 3.48937C10.1822 3.37781 10.6467 3.3975 10.6669 3.21938C10.5141 3.21938 10.8244 2.96062 10.8244 2.96156C10.928 2.87297 10.9828 2.79656 11.1117 2.78672C11.1661 2.78297 11.7708 2.61609 11.7708 2.69156C11.7952 2.6925 11.8758 2.69344 11.9592 2.69625C10.7888 1.60781 9.22453 0.9375 7.5 0.9375C5.82984 0.9375 4.30969 1.56656 3.15141 2.59453C3.16172 2.61797 3.16969 2.64047 3.16922 2.65641C3.23063 2.65219 3.31875 2.61281 3.33844 2.69062C3.30797 2.69016 3.2775 2.68641 3.24844 2.67891C3.27 2.85281 3.1725 2.74641 3.09094 2.74641C3.09094 2.74219 3.05484 2.72766 3.01641 2.71734C2.99156 2.74078 2.96531 2.76281 2.94047 2.78625C2.94328 2.79375 2.93906 2.79422 2.94375 2.80266C2.97 2.80266 2.95641 2.84344 3.03141 2.86828C3.11813 2.89781 3.21328 2.91422 3.30469 2.92875C3.37875 2.94047 3.42141 2.91516 3.48469 2.91516C3.48469 2.90578 3.63938 2.83688 3.53016 2.83688C3.54516 2.775 3.5175 2.75953 3.45094 2.75859C3.45656 2.69297 3.61266 2.73609 3.67641 2.73609C3.72516 2.65406 3.67781 2.66391 3.72094 2.58938C3.7725 2.49797 3.83391 2.57719 3.86766 2.48953C3.91875 2.50828 3.96422 2.53594 3.98062 2.60062C4.02141 2.63437 4.22859 2.94 4.22859 2.72391C4.30266 2.74875 4.33969 2.8875 4.34109 2.96016C4.47562 2.94047 4.48734 2.83969 4.48734 2.73516C4.51828 2.73516 4.47609 2.685 4.47609 2.66766C4.52625 2.64937 4.58906 2.71547 4.58906 2.64563C4.61062 2.64563 4.61156 2.66719 4.61156 2.69062C4.68141 2.70422 4.72641 2.68266 4.76906 2.69766C4.79859 2.70797 4.78359 2.86125 4.77 2.91516C4.75312 2.98359 4.62234 2.98453 4.62234 3.01641C4.47422 3.12703 4.79719 3.18469 4.84781 3.25219C4.81734 3.25219 4.70156 3.23719 4.70156 3.23016C4.62844 3.23016 4.45125 3.3075 4.38609 3.25219C4.47703 3.25219 4.5075 3.14297 4.52156 3.03891C4.43766 3.0075 4.33875 3.05906 4.31531 3.1425C4.27594 3.28031 4.18453 3.13687 4.13859 3.22969C4.12078 3.23531 3.95813 3.31078 3.95813 3.28547C3.77531 3.31125 3.82313 3.46641 3.82313 3.63375C3.89578 3.67734 4.04344 3.80156 4.03688 3.86953C4.20094 3.89859 4.26094 3.91594 4.40859 3.93703C4.42078 3.96094 4.46953 3.98344 4.49906 3.99281C4.49906 4.08937 4.58672 4.07203 4.66781 4.07203C4.66781 3.94875 4.81125 4.17469 4.82531 4.21781C4.80562 4.21781 4.85906 4.34391 4.87031 4.38656C4.84781 4.37859 4.84078 4.38656 4.84781 4.40906C4.91906 4.43531 5.03203 4.42781 5.05078 4.35281C4.98234 4.35281 5.00531 4.27453 5.00531 4.22906C4.935 4.18219 4.94578 4.09172 5.01656 4.07203C5.01656 4.13578 5.24859 4.03219 5.11781 3.9825C5.14969 3.91078 5.17125 3.80062 5.11922 3.73828C5.08594 3.69891 5.04422 3.73828 5.02781 3.67922C5.11641 3.65719 5.05125 3.48844 5.05031 3.40969C5.07844 3.39891 5.15156 3.4275 5.15156 3.40969C5.23828 3.40969 5.38266 3.51937 5.43328 3.38672C5.57812 3.45281 5.46281 3.51563 5.61375 3.46547C5.61375 3.50109 5.78391 3.6675 5.80547 3.6675C5.80547 3.67547 5.80125 3.72375 5.83875 3.72375C5.83875 3.75984 5.81625 3.70312 5.81625 3.76828C5.83734 3.77062 5.95172 3.79125 5.95172 3.74625C6.02437 3.74625 6.07547 3.65719 6.07547 3.58922C6.12094 3.55969 6.20063 3.83625 6.25547 3.83625C6.29578 3.89906 6.42469 3.99047 6.42469 4.04953C6.45188 4.07719 6.48047 4.06969 6.48047 4.15078C6.51469 4.15078 6.58219 4.01625 6.58219 4.13953C6.61406 4.13953 6.70688 4.20797 6.71766 4.26281C6.63656 4.26281 6.71344 4.34156 6.67172 4.34156C6.67172 4.41938 6.49781 4.3575 6.45844 4.35281C6.40453 4.59422 6.07922 4.42078 5.88234 4.48313C5.77875 4.51594 5.57859 4.74422 5.56781 4.85813C5.69344 4.85953 5.74875 4.74938 5.86078 4.71188C5.95219 4.71188 5.97 4.65656 6.0525 4.63359C6.0525 4.65656 6.075 4.64437 6.075 4.66734C5.91469 4.66734 6.01219 4.77094 6.05906 4.84641C6.08812 4.89328 6.12141 4.91578 6.15844 4.93031C6.14297 4.9575 6.13031 4.98469 6.12047 5.01516C6.12047 5.01563 6.12 5.01516 6.12 5.01562C6.08953 5.02594 6.03 5.04797 6.01828 5.07187C5.83687 5.09203 5.92641 5.07984 5.93859 5.03625C5.94516 5.05172 6.01031 5.03766 6.0075 5.03813C5.99672 4.98375 5.98031 4.99125 5.99625 4.95984C5.89781 4.95984 5.85 5.00484 5.77078 5.00484C5.75766 5.03156 5.68875 5.09484 5.65828 5.09484C5.63531 5.16422 5.58328 5.29031 5.52281 5.33062C5.52281 5.31234 5.3625 5.43141 5.37656 5.43141C5.34094 5.48906 5.30203 5.48719 5.28609 5.57719C5.27531 5.58281 5.22984 5.73328 5.22984 5.75672C5.16 5.80313 5.13422 5.9925 5.01562 5.9925C4.94297 6.13688 4.81266 6.11766 4.81266 6.30703C4.85672 6.35203 4.87359 6.55125 4.88719 6.615C4.90406 6.69422 4.93031 6.77672 4.82437 6.77859C4.81687 6.76688 4.74281 6.65484 4.75641 6.65484C4.75641 6.60844 4.69969 6.45984 4.66641 6.41344C4.62187 6.35109 4.53937 6.42328 4.47469 6.39609C4.44703 6.34078 4.26 6.32859 4.19344 6.32859C4.20422 6.37031 4.23469 6.38344 4.23844 6.42984C4.18312 6.45234 4.15125 6.47766 4.09406 6.46969C3.99609 6.45609 4.00781 6.37969 3.9 6.39047C3.7275 6.40781 3.60703 6.55078 3.60703 6.72188C3.58781 6.72188 3.58781 7.05891 3.60703 7.05891C3.60703 7.15406 3.68578 7.22297 3.68578 7.29469C3.76219 7.29469 3.84797 7.46297 3.9225 7.46297C3.93094 7.5225 3.885 7.53187 4.0125 7.53094C4.0125 7.52437 4.08187 7.48734 4.09125 7.44094C4.00312 7.41937 4.09078 7.30594 4.1475 7.28391C4.1475 7.36406 4.26 7.25719 4.26 7.25016C4.27266 7.245 4.38422 7.20516 4.38422 7.20516C4.38422 7.11422 4.46906 7.21406 4.40672 7.25016C4.34578 7.25016 4.35047 7.35141 4.31672 7.35141C4.30219 7.42359 4.27359 7.48641 4.25672 7.55672C4.23516 7.64344 4.30547 7.65234 4.28297 7.73344C4.3725 7.75031 4.46297 7.73391 4.55344 7.73344C4.55391 7.7175 4.55062 7.70203 4.54219 7.68844C4.67297 7.68844 4.55344 7.93547 4.63266 7.93547C4.63266 8.02875 4.67766 8.10141 4.67766 8.16C4.73859 8.20031 4.77516 8.25422 4.75641 8.32828C4.83141 8.33813 4.99266 8.35734 4.99266 8.26078C5.10656 8.26078 5.11453 8.33813 5.10609 8.41781C5.33297 8.41781 5.19094 8.19328 5.28563 8.19328C5.29453 8.15625 5.31 8.14969 5.33203 8.17406C5.37844 8.19891 5.41359 8.12766 5.45063 8.10516C5.46234 8.09719 5.50359 8.07328 5.51109 8.07328C5.54297 8.0925 5.54578 8.08688 5.55984 8.10844C5.62172 8.10797 5.68406 8.07328 5.73703 8.03672C5.81813 8.04656 5.79188 8.22094 5.94375 8.23172C6.00469 8.23594 6.14578 8.25281 6.19828 8.21672C6.21141 8.20781 6.25969 8.24719 6.26484 8.26406C6.31547 8.26406 6.31172 8.30813 6.33328 8.30719C6.33844 8.31703 6.34594 8.32078 6.35625 8.31797C6.36281 8.33719 6.40312 8.34281 6.42422 8.39625C6.42422 8.445 6.52547 8.45344 6.52547 8.48578C6.59812 8.52234 6.50062 8.53219 6.61219 8.56594C6.67359 8.58516 6.73031 8.61609 6.79641 8.62078C6.8175 8.54063 6.88594 8.63156 6.92062 8.63156C6.93844 8.66812 6.94781 8.64047 6.96516 8.67656C7.06969 8.76375 7.00078 8.73 7.04391 8.82281C7.09406 8.85563 7.11 8.97 7.12359 9.03609C7.08328 9.03609 7.11187 9.19031 7.11187 9.20484C7.06312 9.20484 7.23656 9.29719 7.23656 9.18187C7.30781 9.19359 7.35469 9.27141 7.40531 9.27141C7.37578 9.33937 7.48406 9.39047 7.48406 9.28313C7.59094 9.29391 7.56234 9.45328 7.55203 9.50766C7.63125 9.50766 7.65422 9.46359 7.72172 9.45516C7.79484 9.40875 7.87641 9.375 7.96875 9.375C8.22797 9.375 8.4375 9.58453 8.4375 9.84375C8.4375 10.0772 8.26359 10.2623 8.04 10.298C8.01 10.3322 7.98281 10.3617 7.98094 10.3617C7.98094 10.3842 7.97578 10.6083 7.96922 10.6083C7.96922 10.6533 7.935 10.9003 7.90172 10.9003C7.90172 11.0273 7.81875 11.0503 7.78922 11.1698C7.72078 11.2205 7.53562 11.3048 7.50703 11.3606C7.45406 11.3606 7.41469 11.4056 7.36078 11.4056C7.35328 11.4211 7.23844 11.5294 7.25906 11.5294C7.25063 11.6091 7.26516 11.7966 7.22203 11.8491C7.19297 11.8837 7.15125 11.88 7.16953 11.9344C7.10625 11.9344 7.17328 11.9794 7.07344 11.9794C7.01063 11.9794 6.89859 12.0689 6.89531 12.1448C6.89109 12.2377 6.86625 12.3047 6.78656 12.3614C6.78656 12.3933 6.64031 12.4027 6.64031 12.4852C6.65391 12.4852 6.64031 12.638 6.64031 12.6534C6.59672 12.652 6.48984 12.6956 6.47156 12.7317C6.32437 12.7317 6.34219 12.7467 6.24656 12.8105C6.24656 12.8302 6.23297 12.9 6.21281 12.9C6.21281 13.0139 6.13172 12.9103 6.06609 12.968C6.09187 12.968 6.12469 13.08 6.11109 13.08C6.11109 13.1789 6.04969 13.1873 5.98734 13.26C5.95781 13.2797 5.92969 13.3612 5.90859 13.3612C5.90859 13.4278 5.87531 13.4883 5.87531 13.552C5.88938 13.552 5.87625 13.5806 5.88609 13.6073C5.9175 13.5984 5.91844 13.5628 5.93109 13.5628C5.93109 13.5066 6.02063 13.5961 5.96484 13.5961C5.91844 13.6664 5.86828 13.6678 5.84063 13.7648C5.8125 13.7648 5.78812 13.792 5.7675 13.8239C6.31969 13.9744 6.89906 14.0625 7.5 14.0625C9.80812 14.0625 11.8341 12.8681 13.0041 11.0658C13.0111 10.8998 13.0369 10.7414 13.0552 10.6866C13.1011 10.7203 13.1353 10.7836 13.1677 10.6866C13.0866 10.6706 13.1062 10.6425 13.1339 10.5745C13.1648 10.5933 13.2272 10.6163 13.2778 10.613C13.2933 10.5839 13.3055 10.553 13.3209 10.5239C13.275 10.4883 13.3383 10.3959 13.3603 10.4409C13.372 10.4184 13.3823 10.395 13.3931 10.3725C13.388 10.3711 13.3894 10.3744 13.3819 10.372C13.3819 10.3313 13.3894 10.3364 13.4161 10.3158C13.4166 10.32 13.4161 10.32 13.417 10.3238C13.8262 9.46734 14.0625 8.5125 14.0625 7.5C14.0625 7.46672 14.0578 7.43484 14.0573 7.40156C14.0452 7.4475 14.0222 7.49719 13.9898 7.50844C13.9898 7.53797 13.6547 7.68375 13.6748 7.74422C13.6158 7.74422 13.4086 7.80328 13.3706 7.87875C13.3289 7.87875 13.1606 7.93828 13.1452 7.96875C12.9361 7.96922 12.9759 7.72219 12.8752 7.72219ZM13.8281 5.15625H13.5792C13.5773 5.15391 13.5755 5.15344 13.5736 5.15016C13.5609 5.15016 13.508 5.03109 13.5286 5.00391C13.5488 5.00391 13.5581 5.00578 13.5689 5.00672C13.5478 4.95516 13.5248 4.90453 13.5019 4.85344C13.4513 4.88813 13.4067 4.93219 13.3369 4.93641C13.3369 4.95563 13.237 5.14969 13.3369 5.14969C13.3369 5.15344 13.3388 5.15625 13.3397 5.15953C13.2202 5.17078 13.125 5.26828 13.125 5.39062C13.125 5.52 13.23 5.625 13.3594 5.625H13.4517C13.4573 5.66766 13.4803 5.70469 13.5623 5.72297C13.5881 5.83125 13.7812 5.86969 13.8103 5.75625C13.7287 5.75625 13.7555 5.67797 13.7625 5.625H13.8281C13.957 5.625 14.0625 5.52 14.0625 5.39062C14.0625 5.26125 13.957 5.15625 13.8281 5.15625ZM13.1452 8.20406C13.1616 8.205 13.2698 8.20219 13.2698 8.18297C13.3678 8.18297 13.5005 8.16938 13.5966 8.1375C13.5966 8.28281 13.4742 8.36391 13.4948 8.50828C13.4137 8.50828 13.4494 8.59172 13.4494 8.62031C13.3969 8.65266 13.3889 8.71172 13.3256 8.74406C13.3256 8.80922 13.1794 8.91703 13.1363 8.97281C13.0875 9.03516 12.9408 9.14344 12.9216 9.22266C12.9267 9.20391 12.6534 9.50719 12.7172 9.50719C12.7172 9.56391 12.6403 10.0125 12.7397 10.0125C12.7397 10.0519 12.8245 10.4283 12.773 10.4283C12.773 10.5492 12.6942 10.6233 12.6942 10.7198C12.6558 10.7461 12.6009 10.7606 12.5817 10.7991C12.5128 10.7991 12.4795 10.9453 12.4467 10.9453C12.4467 11.1014 12.4012 11.2172 12.4012 11.3944C12.4139 11.3944 12.3112 11.647 12.3112 11.6634C12.2283 11.7192 12.0183 11.9194 12.0183 12.0234C12.0183 12.0234 11.872 12.2287 11.8495 12.2592C11.8055 12.2592 11.4661 12.323 11.4661 12.3492C11.3939 12.3492 11.2073 12.4059 11.1623 12.338C11.1623 12.2667 11.1234 12.1762 11.1173 12.0792C11.0827 12.0792 11.077 11.9334 11.0386 11.9334C11.0386 11.9025 10.8234 11.4727 10.8581 11.4727C10.8581 11.4281 10.8197 11.2819 10.8131 11.2819C10.8131 11.1272 10.7002 10.9983 10.7002 10.8553C10.6669 10.8553 10.598 10.5413 10.6327 10.5413C10.6327 10.3763 10.6903 10.2684 10.7142 10.0852C10.7409 9.88406 10.7016 9.76172 10.6664 9.61969C10.6472 9.61969 10.5825 9.51234 10.5759 9.48516C10.4855 9.42516 10.4522 9.30609 10.4522 9.19359C10.5113 9.12609 10.5347 8.8725 10.5202 8.78906C10.4063 8.73516 10.3608 8.75531 10.238 8.75531C10.1653 8.60953 9.67734 8.69953 9.53906 8.69953C9.53906 8.77922 9.19922 8.68406 9.16734 8.62078C9.08437 8.62078 8.91984 8.44453 8.91984 8.3625C8.82891 8.30203 8.68359 8.00109 8.68359 7.90219C8.60484 7.86281 8.62875 7.71094 8.67188 7.71094C8.68266 7.66875 8.64422 7.53562 8.62594 7.47234C8.61234 7.425 8.67188 7.37391 8.67188 7.31766C8.67188 7.16109 8.67562 7.08891 8.76328 6.92156C8.79094 6.86906 8.82609 6.81984 8.85188 6.75422C8.89875 6.63656 8.91281 6.74859 8.97609 6.64359C9.03656 6.61359 9.07172 6.51328 9.13406 6.46406C9.16125 6.42797 9.16219 6.41297 9.13406 6.38531C9.14625 6.38531 9.21281 6.21234 9.21281 6.1725C9.30094 6.05016 9.23859 6.10594 9.32531 6.11625C9.35719 6.08156 9.41016 5.9925 9.46031 5.9925C9.48234 5.94891 9.53766 5.925 9.58453 5.925C9.58453 5.9925 9.76828 5.90297 9.7875 5.90297C9.81891 5.83969 10.0214 5.76797 10.0692 5.76797C10.0692 5.69109 10.4686 5.78953 10.5314 5.77922C10.5314 5.76797 10.5314 5.75672 10.5314 5.74547C10.6167 5.76562 10.7723 6.10781 10.7564 6.18375C10.822 6.18375 10.883 6.17297 10.9256 6.18375C10.9256 6.25641 11.0625 6.27422 11.1248 6.2775C11.2116 6.28172 11.4661 6.26859 11.4661 6.15C11.5331 6.15 11.5927 6.19688 11.5795 6.27328C11.6555 6.28172 12.1069 6.29062 12.075 6.38531C12.1411 6.38531 12.158 6.49828 12.2213 6.49828C12.2086 6.57609 12.3 6.77906 12.3675 6.77906C12.3675 6.84656 12.4097 6.97078 12.4692 7.01437C12.5011 7.11094 12.6066 7.31437 12.7055 7.37391C12.6633 7.45359 12.7697 7.51922 12.7959 7.59844C12.7898 7.59844 12.8189 7.71609 12.8517 7.73344C12.8517 7.81312 13.0195 8.13797 13.1114 8.13797C13.1175 8.17734 13.0252 8.19516 13.1452 8.20406ZM10.7119 5.68922C10.7292 5.62219 10.7686 5.67422 10.8052 5.68641C10.8919 5.71453 10.8619 5.685 10.9261 5.65594C10.9261 5.83875 10.8211 5.7 10.7119 5.68922ZM10.4747 5.35219C10.5206 5.35219 10.5333 5.55844 10.4072 5.52047C10.4072 5.46938 10.3748 5.37469 10.4414 5.37469C10.4606 5.45437 10.4747 5.42203 10.4747 5.35219ZM10.4189 5.21766C10.4709 5.24016 10.4939 5.23266 10.4864 5.19516C10.5548 5.21766 10.4775 5.26641 10.4639 5.31891C10.4287 5.28422 10.4395 5.27203 10.4189 5.21766ZM9.21281 4.21781C9.10219 4.18922 9.32672 4.15641 9.33656 4.12828C9.29906 4.12828 9.27328 4.08938 9.28781 4.05656C9.30469 4.01766 9.33234 4.10297 9.37078 4.08375C9.41625 4.07906 9.50578 4.01109 9.45984 4.14234C9.41297 4.27547 9.37031 4.37297 9.20156 4.37531C9.14109 4.31437 9.19922 4.2825 9.21281 4.21781ZM9.63 3.7575C9.72094 3.7575 9.64125 3.825 9.62109 3.825C9.63656 3.83109 9.61828 3.88547 9.61828 3.90328C9.70266 3.90234 9.70406 3.85078 9.76453 3.83578C9.75187 3.91125 9.6675 3.92578 9.75 3.99047C9.79359 4.02469 9.83813 4.065 9.82078 4.11703C9.92813 4.11703 9.94406 4.22016 9.92203 4.34156C9.98156 4.34156 9.97875 4.34437 9.97875 4.28484C10.0364 4.30078 10.0322 4.35281 9.97875 4.35281C9.92531 4.45828 9.78516 4.45359 9.68578 4.45359C9.68484 4.37203 9.66937 4.36687 9.59391 4.38984C9.49078 4.42125 9.57141 4.30781 9.57328 4.25156C9.58453 4.25156 9.80719 4.26188 9.67453 4.21781C9.6675 4.09688 9.64031 4.06078 9.52828 4.06078C9.52828 3.97828 9.49922 3.98438 9.48563 3.89391C9.46641 3.76031 9.59016 3.90328 9.63 3.7575ZM9.59578 4.48734C9.59578 4.515 9.53953 4.53703 9.52828 4.49812C9.53906 4.50187 9.54328 4.49812 9.53906 4.48734C9.55828 4.48734 9.5775 4.48734 9.59578 4.48734ZM8.67188 3.28125H8.20312C8.07375 3.28125 7.96875 3.17625 7.96875 3.04688C7.96875 2.9175 8.07375 2.8125 8.20312 2.8125H8.67188C8.80125 2.8125 8.90625 2.9175 8.90625 3.04688C8.90625 3.17625 8.80125 3.28125 8.67188 3.28125ZM5.94094 7.42969C5.96719 7.42969 5.99766 7.44 5.99766 7.46344C5.96344 7.46344 5.91937 7.49578 5.94094 7.42969ZM5.51344 7.45266C5.49469 7.48828 5.34281 7.48219 5.32172 7.44094C5.37797 7.44094 5.42156 7.46391 5.47922 7.44094C5.47922 7.41 5.45344 7.38516 5.43422 7.35141C5.49563 7.35141 5.56453 7.39828 5.64844 7.39641C5.64844 7.34438 5.62547 7.40766 5.64844 7.34016C5.68359 7.34906 5.76844 7.42969 5.77219 7.46344C5.64891 7.45031 5.64328 7.45266 5.51344 7.45266ZM5.0175 7.18313C4.95984 7.18313 4.84875 7.13297 4.81453 7.08187C4.87031 7.08422 4.92563 7.10719 4.96078 7.04813C5.10375 7.06266 5.11641 7.16109 5.23125 7.16109C5.25281 7.19906 5.37563 7.28625 5.25703 7.2975C5.1675 7.30594 5.055 7.25719 5.0175 7.18313ZM5.1075 7.49766C5.06578 7.49766 4.99687 7.51594 5.02875 7.42969C5.08406 7.43719 5.11031 7.46016 5.1075 7.49766ZM5.18625 7.48641C5.16375 7.49016 5.14125 7.49391 5.11875 7.49766C5.12531 7.44562 5.17453 7.3875 5.18625 7.48641ZM5.60297 7.98C5.59406 8.01141 5.59547 8.01328 5.55844 8.01328C5.56219 7.99875 5.56547 7.98422 5.56922 7.96875C5.58094 7.9725 5.59172 7.97625 5.60297 7.98ZM4.58906 7.04813C4.59984 7.05188 4.61156 7.05609 4.62281 7.05938C4.63734 7.11516 4.66781 7.0875 4.70156 7.07062C4.70156 7.13578 4.55062 7.15453 4.58906 7.04813Z" fill="#820319"/>
</g>
<defs>
<clipPath id="clip0_882_3">
<rect width="15" height="15" fill="white"/>
</clipPath>
</defs>
</svg>
