<svg width="19" height="19" viewBox="0 0 19 19" fill="none" xmlns="http://www.w3.org/2000/svg">
<path d="M12.055 8.79425L10.6123 10.3152L17.4545 17.5283L16.0584 19L9.21625 11.7869L2.37406 19L0.978023 17.5283L10.659 7.32253C10.2863 6.53748 10.232 5.62158 10.4961 4.57483C10.7602 3.52809 11.2799 2.59579 12.055 1.77793C13.0168 0.763989 14.0872 0.183396 15.2661 0.0361536C16.445 -0.111088 17.3913 0.191421 18.1048 0.94368C18.8184 1.69594 19.1054 2.70186 18.9657 3.96144C18.826 5.22102 18.2753 6.35779 17.3135 7.37173C16.5377 8.18959 15.6533 8.72936 14.6604 8.99104C13.6675 9.25273 12.7997 9.18713 12.055 8.79425ZM5.35282 10.7077L1.1637 6.29149C0.3879 5.47364 0 4.49214 0 3.347C0 2.20187 0.3879 1.22037 1.1637 0.402514L8.1449 7.71297L5.35282 10.7077Z" fill="url(#paint0_linear_863_11)"/>
<defs>
<linearGradient id="paint0_linear_863_11" x1="9.5" y1="0" x2="9.5" y2="19" gradientUnits="userSpaceOnUse">
<stop stop-color="#05B15F" stop-opacity="0.9"/>
<stop offset="1" stop-color="#FFFB03" stop-opacity="0.9"/>
</linearGradient>
</defs>
</svg>
