<svg width="15" height="15" viewBox="0 0 15 15" fill="none" xmlns="http://www.w3.org/2000/svg">
<path d="M2.91667 1.875H0.416667C0.1875 1.875 0 2.08594 0 2.34375V12.6562C0 12.9141 0.1875 13.125 0.416667 13.125H2.91667C3.14583 13.125 3.33333 12.9141 3.33333 12.6562V2.34375C3.33333 2.08594 3.14583 1.875 2.91667 1.875ZM2.5 4.6875H0.833333V3.75H2.5V4.6875Z" fill="url(#paint0_linear_882_27)"/>
<path d="M7.08317 1.875H4.58317C4.354 1.875 4.1665 2.08594 4.1665 2.34375V12.6562C4.1665 12.9141 4.354 13.125 4.58317 13.125H7.08317C7.31234 13.125 7.49984 12.9141 7.49984 12.6562V2.34375C7.49984 2.08594 7.31234 1.875 7.08317 1.875ZM6.6665 4.6875H4.99984V3.75H6.6665V4.6875Z" fill="url(#paint1_linear_882_27)"/>
<path d="M9.96197 2.59976L7.72947 3.86538C7.52489 3.98116 7.44156 4.26476 7.54489 4.49491L11.2945 12.8673C11.3974 13.0974 11.6495 13.1912 11.8541 13.0749L14.0866 11.8093C14.2911 11.6935 14.3745 11.4099 14.2711 11.1798L10.5216 2.80741C10.4186 2.57726 10.1666 2.48351 9.96197 2.59976Z" fill="url(#paint2_linear_882_27)"/>
<defs>
<linearGradient id="paint0_linear_882_27" x1="1.66667" y1="1.875" x2="1.66667" y2="13.125" gradientUnits="userSpaceOnUse">
<stop stop-color="#05B15F" stop-opacity="0.9"/>
<stop offset="1" stop-color="#FFFB03" stop-opacity="0.9"/>
</linearGradient>
<linearGradient id="paint1_linear_882_27" x1="5.83317" y1="1.875" x2="5.83317" y2="13.125" gradientUnits="userSpaceOnUse">
<stop stop-color="#05B15F" stop-opacity="0.9"/>
<stop offset="1" stop-color="#FFFB03" stop-opacity="0.9"/>
</linearGradient>
<linearGradient id="paint2_linear_882_27" x1="10.908" y1="2.5498" x2="10.908" y2="13.1249" gradientUnits="userSpaceOnUse">
<stop stop-color="#05B15F" stop-opacity="0.9"/>
<stop offset="1" stop-color="#FFFB03" stop-opacity="0.9"/>
</linearGradient>
</defs>
</svg>
