<svg width="15" height="15" viewBox="0 0 15 15" fill="none" xmlns="http://www.w3.org/2000/svg">
<g clip-path="url(#clip0_882_25)">
<path d="M13.5938 6.5625H1.40625C1.14703 6.5625 0.9375 6.35297 0.9375 6.09375C0.9375 5.83453 1.14703 5.625 1.40625 5.625H2.34375L5.15625 0.46875C5.15625 0.209531 5.36578 0 5.625 0H6.5625C6.82172 0 7.03125 0.209531 7.03125 0.46875L4.21875 5.625H10.7812L7.96875 0.46875C7.96875 0.209531 8.17828 0 8.4375 0H9.84375C10.103 0 10.3125 0.209531 10.3125 0.46875L12.6562 5.625H13.5938C13.853 5.625 14.0625 5.83453 14.0625 6.09375C14.0625 6.35297 13.853 6.5625 13.5938 6.5625ZM1.40625 7.5H13.5938C13.853 7.5 14.0625 7.70953 14.0625 7.96875L13.125 14.5312C13.125 14.7905 12.9155 15 12.6562 15H2.34375C2.08453 15 1.875 14.7905 1.875 14.5312L0.9375 7.96875C0.9375 7.70953 1.14703 7.5 1.40625 7.5ZM10.3125 13.125H11.25C11.5092 13.125 11.7188 12.9155 11.7188 12.6562L12.1875 9.84375C12.1875 9.58453 11.978 9.375 11.7188 9.375H10.7812C10.522 9.375 10.3125 9.58453 10.3125 9.84375L9.84375 12.6562C9.84375 12.9155 10.0533 13.125 10.3125 13.125ZM6.5625 12.6562C6.5625 12.9155 6.77203 13.125 7.03125 13.125H7.96875C8.22797 13.125 8.4375 12.9155 8.4375 12.6562V9.84375C8.4375 9.58453 8.22797 9.375 7.96875 9.375H7.03125C6.77203 9.375 6.5625 9.58453 6.5625 9.84375V12.6562ZM3.28125 12.6562C3.28125 12.9155 3.49078 13.125 3.75 13.125H4.6875C4.94672 13.125 5.15625 12.9155 5.15625 12.6562L4.6875 9.84375C4.6875 9.58453 4.47797 9.375 4.21875 9.375H3.28125C3.02203 9.375 2.8125 9.58453 2.8125 9.84375L3.28125 12.6562Z" fill="url(#paint0_linear_882_25)"/>
</g>
<defs>
<linearGradient id="paint0_linear_882_25" x1="7.5" y1="0" x2="7.5" y2="15" gradientUnits="userSpaceOnUse">
<stop stop-color="#05B15F" stop-opacity="0.9"/>
<stop offset="1" stop-color="#FFFB03" stop-opacity="0.9"/>
</linearGradient>
<clipPath id="clip0_882_25">
<rect width="15" height="15" fill="white"/>
</clipPath>
</defs>
</svg>
