<svg width="15" height="15" viewBox="0 0 15 15" fill="none" xmlns="http://www.w3.org/2000/svg">
<path d="M12.1875 2.19751L11.25 1.26001L10.3125 2.19751L9.375 1.26001L8.4375 2.19751L7.5 1.26001L6.5625 2.19751L5.625 1.26001L4.6875 2.19751L3.75 1.26001V9.99063H1.875V11.8656C1.875 12.2173 1.95792 12.5346 2.12375 12.8175C2.28958 13.1004 2.51417 13.325 2.7975 13.4913C3.08083 13.6575 3.39813 13.7404 3.74938 13.74H11.2494C11.601 13.74 11.9183 13.6571 12.2012 13.4913C12.4842 13.3254 12.7088 13.1008 12.875 12.8175C13.0413 12.5342 13.1242 12.2169 13.1237 11.8656V1.26001L12.1875 2.19751ZM11.865 11.865C11.865 12.0408 11.8065 12.1923 11.6894 12.3194C11.5723 12.4465 11.4258 12.51 11.25 12.51C11.0742 12.51 10.9277 12.4465 10.8106 12.3194C10.6935 12.1923 10.635 12.0408 10.635 11.865V9.99001H5.01V3.13438H11.8656V11.865H11.865ZM5.625 4.36501H9.375V5.62501H5.625V4.36501ZM9.99 4.36501H11.25V5.62501H9.99V4.36501ZM5.625 6.24001H9.375V7.50001H5.625V6.24001ZM9.99 6.24001H11.25V7.50001H9.99V6.24001Z" fill="url(#paint0_linear_882_19)"/>
<defs>
<linearGradient id="paint0_linear_882_19" x1="7.49938" y1="1.26001" x2="7.49938" y2="13.74" gradientUnits="userSpaceOnUse">
<stop stop-color="#05B15F" stop-opacity="0.9"/>
<stop offset="1" stop-color="#FFFB03" stop-opacity="0.9"/>
</linearGradient>
</defs>
</svg>
