<svg width="25" height="25" viewBox="0 0 25 25" fill="none" xmlns="http://www.w3.org/2000/svg">
<g clip-path="url(#clip0_882_35)">
<path d="M9.375 17.9688C9.375 14.2766 11.7156 11.1211 14.9914 9.90703C15.3891 9.01484 15.625 8.02344 15.625 7.03125C15.625 3.14766 15.625 0 10.9375 0C6.25 0 6.25 3.14766 6.25 7.03125C6.25 9.45 7.65391 11.868 9.375 12.8375V14.1258C4.075 14.5594 0 17.1633 0 20.3117H9.7C9.48828 19.5664 9.375 18.7812 9.375 17.9688Z" fill="#5A0319"/>
<path d="M17.9688 10.9375C14.0852 10.9375 10.9375 14.0852 10.9375 17.9688C10.9375 21.8523 14.0852 25 17.9688 25C21.8523 25 25 21.8523 25 17.9688C25 14.0852 21.8523 10.9375 17.9688 10.9375ZM21.875 18.75H18.75V21.875H17.1875V18.75H14.0625V17.1875H17.1875V14.0625H18.75V17.1875H21.875V18.75Z" fill="#5A0319"/>
</g>
<defs>
<clipPath id="clip0_882_35">
<rect width="25" height="25" fill="white"/>
</clipPath>
</defs>
</svg>
