<svg width="15" height="15" viewBox="0 0 15 15" fill="none" xmlns="http://www.w3.org/2000/svg">
<g clip-path="url(#clip0_882_23)">
<path d="M13.5938 15H3.28125C3.0225 15 2.8125 14.7905 2.8125 14.5312V14.0625H1.40625C1.14703 14.0625 0.9375 13.853 0.9375 13.5938V12.6562C0.9375 12.397 1.14703 12.1875 1.40625 12.1875H2.8125V11.25H1.40625C1.14703 11.25 0.9375 11.0405 0.9375 10.7812V9.84375C0.9375 9.58453 1.14703 9.375 1.40625 9.375H2.8125V8.4375H1.40625C1.14703 8.4375 0.9375 8.22797 0.9375 7.96875V7.03125C0.9375 6.77203 1.14703 6.5625 1.40625 6.5625H2.8125V5.625H1.40625C1.14703 5.625 0.9375 5.41547 0.9375 5.15625V4.21875C0.9375 3.95953 1.14703 3.75 1.40625 3.75H2.8125V2.8125H1.40625C1.14703 2.8125 0.9375 2.60297 0.9375 2.34375V1.40625C0.9375 1.14703 1.14703 0.9375 1.40625 0.9375H2.8125V0.46875C2.8125 0.209531 3.0225 0 3.28125 0H13.5938C13.853 0 14.0625 0.209531 14.0625 0.46875V14.5312C14.0625 14.7905 13.853 15 13.5938 15ZM2.8125 1.40625H1.875C1.61578 1.40625 1.40625 1.61578 1.40625 1.875C1.40625 2.13422 1.61578 2.34375 1.875 2.34375H2.8125C3.07172 2.34375 3.28125 2.13422 3.28125 1.875C3.28125 1.61578 3.07172 1.40625 2.8125 1.40625ZM2.8125 4.21875H1.875C1.61578 4.21875 1.40625 4.42828 1.40625 4.6875C1.40625 4.94672 1.61578 5.15625 1.875 5.15625H2.8125C3.07172 5.15625 3.28125 4.94672 3.28125 4.6875C3.28125 4.42828 3.07172 4.21875 2.8125 4.21875ZM2.8125 7.03125H1.875C1.61578 7.03125 1.40625 7.24078 1.40625 7.5C1.40625 7.75922 1.61578 7.96875 1.875 7.96875H2.8125C3.07172 7.96875 3.28125 7.75922 3.28125 7.5C3.28125 7.24078 3.07172 7.03125 2.8125 7.03125ZM2.8125 9.84375H1.875C1.61578 9.84375 1.40625 10.0533 1.40625 10.3125C1.40625 10.5717 1.61578 10.7812 1.875 10.7812H2.8125C3.07172 10.7812 3.28125 10.5717 3.28125 10.3125C3.28125 10.0533 3.07172 9.84375 2.8125 9.84375ZM2.8125 12.6562H1.875C1.61578 12.6562 1.40625 12.8658 1.40625 13.125C1.40625 13.3842 1.61578 13.5938 1.875 13.5938H2.8125C3.07172 13.5938 3.28125 13.3842 3.28125 13.125C3.28125 12.8658 3.07172 12.6562 2.8125 12.6562ZM11.25 9.78516C11.25 8.98594 10.2572 8.69906 8.9475 8.57906C9.00187 8.54578 9.05156 8.49094 9.10078 8.4375H8.90625C9.16547 8.4375 9.375 8.22797 9.375 7.96875V5.15625C9.375 4.89703 9.16547 4.6875 8.90625 4.6875H7.96875C7.70953 4.6875 7.5 4.89703 7.5 5.15625V7.96875C7.5 8.22797 7.70953 8.4375 7.96875 8.4375H7.77422C7.82344 8.49094 7.87359 8.54531 7.9275 8.57906C6.61781 8.69906 5.625 8.99672 5.625 9.78516V10.3125H11.25V9.78516Z" fill="url(#paint0_linear_882_23)"/>
</g>
<defs>
<linearGradient id="paint0_linear_882_23" x1="7.5" y1="0" x2="7.5" y2="15" gradientUnits="userSpaceOnUse">
<stop stop-color="#05B15F" stop-opacity="0.9"/>
<stop offset="1" stop-color="#FFFB03" stop-opacity="0.9"/>
</linearGradient>
<clipPath id="clip0_882_23">
<rect width="15" height="15" fill="white"/>
</clipPath>
</defs>
</svg>
