<svg viewBox="0 0 113 81" fill="none" xmlns="http://www.w3.org/2000/svg">
<path fill-rule="evenodd" clip-rule="evenodd" d="M4.68707 33.4328C4.68707 37.4474 0.623143 65.3664 2.92521 75.5057C3.88723 79.7417 8.91035 79.1898 9.74664 75.5057C11.8713 66.1495 8.06812 57.5384 8.06812 33.2133C8.06812 29.8831 10.7793 29.7969 12.2468 25.5002C13.5569 21.6637 11.7074 1.00241 11.1113 1.00241C10.4315 1.00241 10.7643 18.8948 9.47513 18.8948C8.17464 18.8948 8.83237 1.24499 8.00992 1.00241C7.18719 0.75976 7.79068 18.8948 6.26896 18.8948C4.73171 18.8948 5.73074 1.00241 4.90829 1.00241C4.08585 1.00241 4.31724 18.8948 3.06252 18.8948C1.68122 18.8948 2.42372 1.00241 1.80667 1.00241C0.758193 1.00241 -0.469973 20.4337 0.182392 24.5382C0.834474 28.6427 4.68707 29.4202 4.68707 33.435V33.4328Z" fill="url(#paint0_linear_872_12)"/>
<path fill-rule="evenodd" clip-rule="evenodd" d="M103.201 41.5164C103.201 61.2535 97.8963 68.1644 100.945 75.1335C102.397 78.4538 108.611 78.0626 109.683 75.1335C112.152 68.3834 107.532 63.4272 107.532 41.7833C107.532 39.1357 112.706 35.4435 112.706 28.6209C112.706 16.4906 110.359 0 105.246 0C100.345 0 101.467 21.2578 101.467 32.8843C101.467 37.8779 103.201 39.1776 103.201 41.5175V41.5164Z" fill="url(#paint1_linear_872_12)"/>
<g clip-path="url(#clip0_872_12)">
<path d="M56 80.5C33.91 80.5 16 62.59 16 40.5C16 18.41 33.91 0.5 56 0.5C78.09 0.5 96 18.41 96 40.5C96 62.59 78.09 80.5 56 80.5ZM88.42 37.1475C88.485 37.115 88.52 37.06 88.545 36.9725C88.5975 37.25 88.725 37.495 88.93 37.675C88.935 37.7 88.9225 37.695 88.935 37.73C88.955 37.73 88.97 37.715 88.9875 37.715C89.1975 37.885 89.4575 38 89.75 38C90.2 38 90.575 37.75 90.795 37.3975C90.81 37.415 90.835 37.4375 90.8475 37.4575C90.845 37.4175 90.84 37.3775 90.835 37.3375C90.9325 37.16 91 36.965 91 36.75C91 36.06 90.4375 35.5 89.75 35.5C89.31 35.5 88.945 35.74 88.72 36.08C88.71 36.0725 88.72 36.0425 88.6925 36.0525C88.725 35.9575 88.6375 35.715 88.5 35.455V36.75C88.5 36.8925 88.46 37.02 88.42 37.1475ZM30.98 36.7725C30.98 36.395 30.12 35.7525 29.8975 35.7525C29.8975 35.685 29.5475 34.915 29.415 34.915C29.415 34.655 28.5025 33.4875 28.3575 33.9975C28.2625 34.3275 29.055 34.7725 29.055 35.155C29.2025 35.155 29.8225 36.33 29.945 36.535C31.3 38.825 28.9325 37.26 28.9325 36.29C28.63 36.14 28.1525 34.9875 28.1525 34.6725C27.975 34.53 27.45 33.4175 27.4925 33.4175C27.4925 32.6875 27.09 32.3375 26.29 32.3375C26.2525 32.265 25.58 31.32 25.5675 31.32C25.5675 31.02 25.0275 30.09 24.7275 29.9425C24.7275 29.32 24.4075 28.5525 24.55 27.9075C24.55 27.23 24.515 26.4625 24.285 25.7675C22.1975 30.25 21 35.23 21 40.5C21 55.6025 30.585 68.435 43.99 73.3425C44.005 72.1025 44.0975 70.6175 44.38 70.6175C44.38 70.4325 44.5375 69.6575 44.68 69.6575C44.68 69.1825 44.7375 68.61 44.68 68.04C44.5025 67.6825 44.915 67.225 45.04 66.6625C45.7325 66.315 45.2425 62.83 45.765 62.83C45.765 61.0875 46.155 60.0725 45.8825 58.4575C46.015 58.4575 45.095 57.48 45.1025 57.4975C44.22 57.4975 43.6025 56.0825 43.6025 55.4625C43.5175 55.19 43.3 54.7825 43.3 54.445C43.5025 54.445 42.0375 52.305 42.0375 52.3475C41.2625 51.9175 42.08 51.3175 42.1575 50.6125C41.485 50.39 42.165 48.575 42.4575 48.575C42.4875 48.345 42.6075 48.1875 42.82 48.0975C42.97 48.695 43.6675 47.8 43.12 47.8C43.12 47.405 43.075 46.56 43.12 46.3625C43.12 45.7525 42.58 44.5575 42.16 45.8225C41.71 45.6 40.575 45.64 40.4775 44.925C40.5475 44.5725 39.83 43.8525 39.5775 43.7275C39.8125 43.1125 38.36 42.29 37.835 42.29C37.835 42.1575 37.5575 42.2175 37.475 42.05C36.94 42.05 36.8175 41.33 36.2125 41.33C35.515 41.33 34.8125 40.8525 34.17 40.8525C33.955 40.425 32.9575 40.5925 32.7275 40.1325C32.205 40.1325 32 39.1425 31.985 38.7775C31.9625 38.3275 31.605 36.7725 30.98 36.7725ZM81.62 16.71C81.615 16.725 81.625 16.715 81.6 16.765C81.6375 16.765 81.6825 16.8075 81.725 16.825C81.6875 16.7875 81.655 16.75 81.62 16.71ZM82.3725 17.5375C82.46 17.7075 82.525 17.865 82.505 17.9625C82.5925 17.965 82.635 17.9175 82.705 17.9C82.5975 17.7775 82.48 17.6625 82.3725 17.5375ZM84.545 28.9275C84.585 27.8475 83.645 28.0275 83.3475 27.4275C83.0375 27.4275 82.925 27.1875 82.505 27.1875C82.2325 27.095 82.0175 27.16 81.86 27.3825C81.2175 27.6275 81.605 27.07 81.1225 27.07C81.145 26.4525 80.9 26.2825 80.22 26.35C79.83 27.23 79.23 27.7575 79.32 28.7475C79.6075 28.8125 79.5575 28.8775 79.5 29.165C79.8825 29.185 82.2025 29.045 82.2025 28.805C82.2825 28.805 82.685 29.6325 82.685 28.925C83.0075 28.925 83.1775 29.6825 83.9475 29.4625C83.9475 29.6175 85.2325 28.9275 84.545 28.9275ZM84.6675 41.685C84.7125 41.465 84.5575 41.3675 84.4275 41.145C84.77 41.145 83.345 38.5025 83.345 38.09C83.1275 37.9825 82.85 37.2275 82.8 36.9525C82.5075 36.7575 82.205 36.1175 82.08 35.755C81.7825 35.5575 81.0575 34.6725 80.94 34.2575C81.37 34.305 82.02 34.3925 82.02 33.8375C81.73 33.8375 81.6875 33.48 81.9625 33.48C81.8725 33.1125 82.1575 32.8475 82.22 32.56C82.295 32.2125 82.4425 31.6775 82.4425 31.2625C82.03 31.2625 81.93 31.3325 81.6025 31.4425C81.6025 31.685 80.87 31.3825 80.7625 31.3825C80.605 31.0675 79.4625 31.7925 79.1425 31.1425C78.625 30.675 78.765 30.315 78.5975 29.655C78.5125 29.32 78.055 29.3 77.7775 29.245C76.995 29.0925 77.56 30.1775 77.5175 30.425C77.9975 30.425 77.215 31.02 77.215 31.3225C76.405 31.1475 76.675 30.245 76.1975 30.005C76.055 29.765 76.1675 29.585 75.835 29.585C75.835 29.265 76.005 28.685 75.655 28.5675C75.655 28.4125 74.975 28.35 74.875 28.1475C74.445 28.1475 73.445 26.5225 73.1375 27.07C72.945 27.42 73.3 27.505 73.3725 27.79C73.995 27.6675 73.935 28.815 74.695 28.6875C74.695 28.8475 74.715 29.01 74.7525 29.1675C75.315 29.035 75.25 29.585 75.5325 29.585C75.3275 29.8575 74.6775 29.15 74.855 29.745C74.9575 30.09 74.9 30.385 74.4525 30.7225C74.4525 30.35 74.4225 29.345 74.0325 29.345C73.7675 28.815 72.98 28.9425 72.6475 28.4475C72.3775 28.4475 72.2725 27.6075 71.8075 27.55C71.72 27.6725 71.3925 27.79 71.265 27.79C71.0125 28.2975 69.585 27.8425 69.585 27.91C69.5625 27.915 68.785 29.815 68.74 30.065C68.6525 30.6025 68.22 30.6125 68.09 31.1225C68.025 31.3775 66.4575 31.2575 66.4575 31.445C65.78 31.22 65.195 30.745 65.195 30.0075C65.14 30.0075 65.3225 28.125 65.4375 27.85C65.575 27.8875 65.6025 27.935 65.68 28.09C66.095 27.935 67.0625 28.1925 67.0625 27.73C67.465 27.74 67.585 27.9 67.4225 28.21C67.7975 28.28 68.445 28.375 68.445 27.85C68.225 27.85 68.2025 27.83 68.2025 27.61C68.9225 26.8625 67.6625 26.1875 67.6625 25.815C67.4075 25.73 66.8875 25.1775 67.2575 25.385C67.57 25.5575 68.7125 25.915 68.2625 25.155C68.2925 25.145 68.3125 25.125 68.32 25.0975C68.4475 25.1875 68.985 25.74 68.985 25.2175C69.1325 25.2175 69.7025 24.8575 69.225 24.8575C69.27 24.5875 69.26 24.3625 69.2825 24.1975C70.045 24.6075 69.62 23.9175 70.005 23.66C70.005 24.1575 70.415 23.42 70.665 23.42C70.9625 22.9775 71.6425 23.32 71.8075 22.82C71.44 22.7 71.5075 21.78 71.5075 21.445C71.95 21.5175 72.4425 20.8475 72.51 21.3075C72.535 21.485 72.5575 21.975 72.6475 22.0425C73.305 22.3875 73.13 21.845 73.13 21.505C72.91 21.505 72.6175 20.735 72.5875 20.365C72.4075 20.39 72.1175 20.465 72.045 20.6025C71.39 20.6025 70.945 20.365 70.425 20.365C70.385 20.285 69.76 19.585 69.825 19.585C69.46 18.9575 70.19 19.14 70.305 19.11C70.305 18.515 72.7825 18.62 72.89 17.67C72.075 17.67 73.73 16.29 73.73 16.295C74.2825 15.8225 74.575 15.415 75.2625 15.3625C75.5525 15.3425 78.7775 14.4525 78.7775 14.855C78.9075 14.86 79.3375 14.865 79.7825 14.88C73.54 9.075 65.1975 5.5 56 5.5C47.0925 5.5 38.985 8.855 32.8075 14.3375C32.8625 14.4625 32.905 14.5825 32.9025 14.6675C33.23 14.645 33.7 14.435 33.805 14.85C33.6425 14.8475 33.48 14.8275 33.325 14.7875C33.44 15.715 32.92 15.1475 32.485 15.1475C32.485 15.125 32.2925 15.0475 32.0875 14.9925C31.955 15.1175 31.815 15.235 31.6825 15.36C31.6975 15.4 31.675 15.4025 31.7 15.4475C31.84 15.4475 31.7675 15.665 32.1675 15.7975C32.63 15.955 33.1375 16.0425 33.625 16.12C34.02 16.1825 34.2475 16.0475 34.585 16.0475C34.585 15.9975 35.41 15.63 34.8275 15.63C34.9075 15.3 34.76 15.2175 34.405 15.2125C34.435 14.8625 35.2675 15.0925 35.6075 15.0925C35.8675 14.655 35.615 14.7075 35.845 14.31C36.12 13.8225 36.4475 14.245 36.6275 13.7775C36.9 13.8775 37.1425 14.025 37.23 14.37C37.4475 14.55 38.5525 16.18 38.5525 15.0275C38.9475 15.16 39.145 15.9 39.1525 16.2875C39.87 16.1825 39.9325 15.645 39.9325 15.0875C40.0975 15.0875 39.8725 14.82 39.8725 14.7275C40.14 14.63 40.475 14.9825 40.475 14.61C40.59 14.61 40.595 14.725 40.595 14.85C40.9675 14.9225 41.2075 14.8075 41.435 14.8875C41.5925 14.9425 41.5125 15.76 41.44 16.0475C41.35 16.4125 40.6525 16.4175 40.6525 16.5875C39.8625 17.1775 41.585 17.485 41.855 17.845C41.6925 17.845 41.075 17.765 41.075 17.7275C40.685 17.7275 39.74 18.14 39.3925 17.845C39.8775 17.845 40.04 17.2625 40.115 16.7075C39.6675 16.54 39.14 16.815 39.015 17.26C38.805 17.995 38.3175 17.23 38.0725 17.725C37.9775 17.755 37.11 18.1575 37.11 18.0225C36.135 18.16 36.39 18.9875 36.39 19.88C36.7775 20.1125 37.565 20.775 37.53 21.1375C38.405 21.2925 38.725 21.385 39.5125 21.4975C39.5775 21.625 39.8375 21.745 39.995 21.795C39.995 22.31 40.4625 22.2175 40.895 22.2175C40.895 21.56 41.66 22.765 41.735 22.995C41.63 22.995 41.915 23.6675 41.975 23.895C41.855 23.8525 41.8175 23.895 41.855 24.015C42.235 24.155 42.8375 24.115 42.9375 23.715C42.5725 23.715 42.695 23.2975 42.695 23.055C42.32 22.805 42.3775 22.3225 42.755 22.2175C42.755 22.5575 43.9925 22.005 43.295 21.74C43.465 21.3575 43.58 20.77 43.3025 20.4375C43.125 20.2275 42.9025 20.4375 42.815 20.1225C43.2875 20.005 42.94 19.105 42.935 18.685C43.085 18.6275 43.475 18.78 43.475 18.685C43.9375 18.685 44.7075 19.27 44.9775 18.5625C45.75 18.915 45.135 19.25 45.94 18.9825C45.94 19.1725 46.8475 20.06 46.9625 20.06C46.9625 20.1025 46.94 20.36 47.14 20.36C47.14 20.5525 47.02 20.25 47.02 20.5975C47.1325 20.61 47.7425 20.72 47.7425 20.48C48.13 20.48 48.4025 20.005 48.4025 19.6425C48.645 19.485 49.07 20.96 49.3625 20.96C49.5775 21.295 50.265 21.7825 50.265 22.0975C50.41 22.245 50.5625 22.205 50.5625 22.6375C50.745 22.6375 51.105 21.92 51.105 22.5775C51.275 22.5775 51.77 22.9425 51.8275 23.235C51.395 23.235 51.805 23.655 51.5825 23.655C51.5825 24.07 50.655 23.74 50.445 23.715C50.1575 25.0025 48.4225 24.0775 47.3725 24.41C46.82 24.585 45.7525 25.8025 45.695 26.41C46.365 26.4175 46.66 25.83 47.2575 25.63C47.745 25.63 47.84 25.335 48.28 25.2125C48.28 25.335 48.4 25.27 48.4 25.3925C47.545 25.3925 48.065 25.945 48.315 26.3475C48.47 26.5975 48.6475 26.7175 48.845 26.795C48.7625 26.94 48.695 27.085 48.6425 27.2475C48.6425 27.25 48.64 27.2475 48.64 27.25C48.4775 27.305 48.16 27.4225 48.0975 27.55C47.13 27.6575 47.6075 27.5925 47.6725 27.36C47.7075 27.4425 48.055 27.3675 48.04 27.37C47.9825 27.08 47.895 27.12 47.98 26.9525C47.455 26.9525 47.2 27.1925 46.7775 27.1925C46.7075 27.335 46.34 27.6725 46.1775 27.6725C46.055 28.0425 45.7775 28.715 45.455 28.93C45.455 28.8325 44.6 29.4675 44.675 29.4675C44.485 29.775 44.2775 29.765 44.1925 30.245C44.135 30.275 43.8925 31.0775 43.8925 31.2025C43.52 31.45 43.3825 32.46 42.75 32.46C42.3625 33.23 41.6675 33.1275 41.6675 34.1375C41.9025 34.3775 41.9925 35.44 42.065 35.78C42.155 36.2025 42.295 36.6425 41.73 36.6525C41.69 36.59 41.295 35.9925 41.3675 35.9925C41.3675 35.745 41.065 34.9525 40.8875 34.705C40.65 34.3725 40.21 34.7575 39.865 34.6125C39.7175 34.3175 38.72 34.2525 38.365 34.2525C38.4225 34.475 38.585 34.545 38.605 34.7925C38.31 34.9125 38.14 35.0475 37.835 35.005C37.3125 34.9325 37.375 34.525 36.8 34.5825C35.88 34.675 35.2375 35.4375 35.2375 36.35C35.135 36.35 35.135 38.1475 35.2375 38.1475C35.2375 38.655 35.6575 39.0225 35.6575 39.405C36.065 39.405 36.5225 40.3025 36.92 40.3025C36.965 40.62 36.72 40.67 37.4 40.665C37.4 40.63 37.77 40.4325 37.82 40.185C37.35 40.07 37.8175 39.465 38.12 39.3475C38.12 39.775 38.72 39.205 38.72 39.1675C38.7875 39.14 39.3825 38.9275 39.3825 38.9275C39.3825 38.4425 39.835 38.975 39.5025 39.1675C39.1775 39.1675 39.2025 39.7075 39.0225 39.7075C38.945 40.0925 38.7925 40.4275 38.7025 40.8025C38.5875 41.265 38.9625 41.3125 38.8425 41.745C39.32 41.835 39.8025 41.7475 40.285 41.745C40.2875 41.66 40.27 41.5775 40.225 41.505C40.9225 41.505 40.285 42.8225 40.7075 42.8225C40.7075 43.32 40.9475 43.7075 40.9475 44.02C41.2725 44.235 41.4675 44.5225 41.3675 44.9175C41.7675 44.97 42.6275 45.0725 42.6275 44.5575C43.235 44.5575 43.2775 44.97 43.2325 45.395C44.4425 45.395 43.685 44.1975 44.19 44.1975C44.2375 44 44.32 43.965 44.4375 44.095C44.685 44.2275 44.8725 43.8475 45.07 43.7275C45.1325 43.685 45.3525 43.5575 45.3925 43.5575C45.5625 43.66 45.5775 43.63 45.6525 43.745C45.9825 43.7425 46.315 43.5575 46.5975 43.3625C47.03 43.415 46.89 44.345 47.7 44.4025C48.025 44.425 48.7775 44.515 49.0575 44.3225C49.1275 44.275 49.385 44.485 49.4125 44.575C49.6825 44.575 49.6625 44.81 49.7775 44.805C49.805 44.8575 49.845 44.8775 49.9 44.8625C49.935 44.965 50.15 44.995 50.2625 45.28C50.2625 45.54 50.8025 45.585 50.8025 45.7575C51.19 45.9525 50.67 46.005 51.265 46.185C51.5925 46.2875 51.895 46.4525 52.2475 46.4775C52.36 46.05 52.725 46.535 52.91 46.535C53.005 46.73 53.055 46.5825 53.1475 46.775C53.705 47.24 53.3375 47.06 53.5675 47.555C53.835 47.73 53.92 48.34 53.9925 48.6925C53.7775 48.6925 53.93 49.515 53.93 49.5925C53.67 49.5925 54.595 50.085 54.595 49.47C54.975 49.5325 55.225 49.9475 55.495 49.9475C55.3375 50.31 55.915 50.5825 55.915 50.01C56.485 50.0675 56.3325 50.9175 56.2775 51.2075C56.7 51.2075 56.8225 50.9725 57.1825 50.9275C57.5725 50.68 58.0075 50.5 58.5 50.5C59.8825 50.5 61 51.6175 61 53C61 54.245 60.0725 55.2325 58.88 55.4225C58.72 55.605 58.575 55.7625 58.565 55.7625C58.565 55.8825 58.5375 57.0775 58.5025 57.0775C58.5025 57.3175 58.32 58.635 58.1425 58.635C58.1425 59.3125 57.7 59.435 57.5425 60.0725C57.1775 60.3425 56.19 60.7925 56.0375 61.09C55.755 61.09 55.545 61.33 55.2575 61.33C55.2175 61.4125 54.605 61.99 54.715 61.99C54.67 62.415 54.7475 63.415 54.5175 63.695C54.3625 63.88 54.14 63.86 54.2375 64.15C53.9 64.15 54.2575 64.39 53.725 64.39C53.39 64.39 52.7925 64.8675 52.775 65.2725C52.7525 65.7675 52.62 66.125 52.195 66.4275C52.195 66.5975 51.415 66.6475 51.415 67.0875C51.4875 67.0875 51.415 67.9025 51.415 67.985C51.1825 67.9775 50.6125 68.21 50.515 68.4025C49.73 68.4025 49.825 68.4825 49.315 68.8225C49.315 68.9275 49.2425 69.3 49.135 69.3C49.135 69.9075 48.7025 69.355 48.3525 69.6625C48.49 69.6625 48.665 70.26 48.5925 70.26C48.5925 70.7875 48.265 70.8325 47.9325 71.22C47.775 71.325 47.625 71.76 47.5125 71.76C47.5125 72.115 47.335 72.4375 47.335 72.7775C47.41 72.7775 47.34 72.93 47.3925 73.0725C47.56 73.025 47.565 72.835 47.6325 72.835C47.6325 72.535 48.11 73.0125 47.8125 73.0125C47.565 73.3875 47.2975 73.395 47.15 73.9125C47 73.9125 46.87 74.0575 46.76 74.2275C49.705 75.03 52.795 75.5 56 75.5C68.31 75.5 79.115 69.13 85.355 59.5175C85.3925 58.6325 85.53 57.7875 85.6275 57.495C85.8725 57.675 86.055 58.0125 86.2275 57.495C85.795 57.41 85.9 57.26 86.0475 56.8975C86.2125 56.9975 86.545 57.12 86.815 57.1025C86.8975 56.9475 86.9625 56.7825 87.045 56.6275C86.8 56.4375 87.1375 55.945 87.255 56.185C87.3175 56.065 87.3725 55.94 87.43 55.82C87.4025 55.8125 87.41 55.83 87.37 55.8175C87.37 55.6 87.41 55.6275 87.5525 55.5175C87.555 55.54 87.5525 55.54 87.5575 55.56C89.74 50.9925 91 45.9 91 40.5C91 40.3225 90.975 40.1525 90.9725 39.975C90.9075 40.22 90.785 40.485 90.6125 40.545C90.6125 40.7025 88.825 41.48 88.9325 41.8025C88.6175 41.8025 87.5125 42.1175 87.31 42.52C87.0875 42.52 86.19 42.8375 86.1075 43C84.9925 43.0025 85.205 41.685 84.6675 41.685ZM89.75 28H88.4225C88.4125 27.9875 88.4025 27.985 88.3925 27.9675C88.325 27.9675 88.0425 27.3325 88.1525 27.1875C88.26 27.1875 88.31 27.1975 88.3675 27.2025C88.255 26.9275 88.1325 26.6575 88.01 26.385C87.74 26.57 87.5025 26.805 87.13 26.8275C87.13 26.93 86.5975 27.965 87.13 27.965C87.13 27.985 87.14 28 87.145 28.0175C86.5075 28.0775 86 28.5975 86 29.25C86 29.94 86.56 30.5 87.25 30.5H87.7425C87.7725 30.7275 87.895 30.925 88.3325 31.0225C88.47 31.6 89.5 31.805 89.655 31.2C89.22 31.2 89.3625 30.7825 89.4 30.5H89.75C90.4375 30.5 91 29.94 91 29.25C91 28.56 90.4375 28 89.75 28ZM86.1075 44.255C86.195 44.26 86.7725 44.245 86.7725 44.1425C87.295 44.1425 88.0025 44.07 88.515 43.9C88.515 44.675 87.8625 45.1075 87.9725 45.8775C87.54 45.8775 87.73 46.3225 87.73 46.475C87.45 46.6475 87.4075 46.9625 87.07 47.135C87.07 47.4825 86.29 48.0575 86.06 48.355C85.8 48.6875 85.0175 49.265 84.915 49.6875C84.9425 49.5875 83.485 51.205 83.825 51.205C83.825 51.5075 83.415 53.9 83.945 53.9C83.945 54.11 84.3975 56.1175 84.1225 56.1175C84.1225 56.7625 83.7025 57.1575 83.7025 57.6725C83.4975 57.8125 83.205 57.89 83.1025 58.095C82.735 58.095 82.5575 58.875 82.3825 58.875C82.3825 59.7075 82.14 60.325 82.14 61.27C82.2075 61.27 81.66 62.6175 81.66 62.705C81.2175 63.0025 80.0975 64.07 80.0975 64.625C80.0975 64.625 79.3175 65.72 79.1975 65.8825C78.9625 65.8825 77.1525 66.2225 77.1525 66.3625C76.7675 66.3625 75.7725 66.665 75.5325 66.3025C75.5325 65.9225 75.325 65.44 75.2925 64.9225C75.1075 64.9225 75.0775 64.145 74.8725 64.145C74.8725 63.98 73.725 61.6875 73.91 61.6875C73.91 61.45 73.705 60.67 73.67 60.67C73.67 59.845 73.0675 59.1575 73.0675 58.395C72.89 58.395 72.5225 56.72 72.7075 56.72C72.7075 55.84 73.015 55.265 73.1425 54.2875C73.285 53.215 73.075 52.5625 72.8875 51.805C72.785 51.805 72.44 51.2325 72.405 51.0875C71.9225 50.7675 71.745 50.1325 71.745 49.5325C72.06 49.1725 72.185 47.82 72.1075 47.375C71.5 47.0875 71.2575 47.195 70.6025 47.195C70.215 46.4175 67.6125 46.8975 66.875 46.8975C66.875 47.3225 65.0625 46.815 64.8925 46.4775C64.45 46.4775 63.5725 45.5375 63.5725 45.1C63.0875 44.7775 62.3125 43.1725 62.3125 42.645C61.8925 42.435 62.02 41.625 62.25 41.625C62.3075 41.4 62.1025 40.69 62.005 40.3525C61.9325 40.1 62.25 39.8275 62.25 39.5275C62.25 38.6925 62.27 38.3075 62.7375 37.415C62.885 37.135 63.0725 36.8725 63.21 36.5225C63.46 35.895 63.535 36.4925 63.8725 35.9325C64.195 35.7725 64.3825 35.2375 64.715 34.975C64.86 34.7825 64.865 34.7025 64.715 34.555C64.78 34.555 65.135 33.6325 65.135 33.42C65.605 32.7675 65.2725 33.065 65.735 33.12C65.905 32.935 66.1875 32.46 66.455 32.46C66.5725 32.2275 66.8675 32.1 67.1175 32.1C67.1175 32.46 68.0975 31.9825 68.2 31.9825C68.3675 31.645 69.4475 31.2625 69.7025 31.2625C69.7025 30.8525 71.8325 31.3775 72.1675 31.3225C72.1675 31.2625 72.1675 31.2025 72.1675 31.1425C72.6225 31.25 73.4525 33.075 73.3675 33.48C73.7175 33.48 74.0425 33.4225 74.27 33.48C74.27 33.8675 75 33.9625 75.3325 33.98C75.795 34.0025 77.1525 33.9325 77.1525 33.3C77.51 33.3 77.8275 33.55 77.7575 33.9575C78.1625 34.0025 80.57 34.05 80.4 34.555C80.7525 34.555 80.8425 35.1575 81.18 35.1575C81.1125 35.5725 81.6 36.655 81.96 36.655C81.96 37.015 82.185 37.6775 82.5025 37.91C82.6725 38.425 83.235 39.51 83.7625 39.8275C83.5375 40.2525 84.105 40.6025 84.245 41.025C84.2125 41.025 84.3675 41.6525 84.5425 41.745C84.5425 42.17 85.4375 43.9025 85.9275 43.9025C85.96 44.1125 85.4675 44.2075 86.1075 44.255ZM73.13 30.8425C73.2225 30.485 73.4325 30.7625 73.6275 30.8275C74.09 30.9775 73.93 30.82 74.2725 30.665C74.2725 31.64 73.7125 30.9 73.13 30.8425ZM71.865 29.045C72.11 29.045 72.1775 30.145 71.505 29.9425C71.505 29.67 71.3325 29.165 71.6875 29.165C71.79 29.59 71.865 29.4175 71.865 29.045ZM71.5675 28.3275C71.845 28.4475 71.9675 28.4075 71.9275 28.2075C72.2925 28.3275 71.88 28.5875 71.8075 28.8675C71.62 28.6825 71.6775 28.6175 71.5675 28.3275ZM65.135 22.995C64.545 22.8425 65.7425 22.6675 65.795 22.5175C65.595 22.5175 65.4575 22.31 65.535 22.135C65.625 21.9275 65.7725 22.3825 65.9775 22.28C66.22 22.255 66.6975 21.8925 66.4525 22.5925C66.2025 23.3025 65.975 23.8225 65.075 23.835C64.7525 23.51 65.0625 23.34 65.135 22.995ZM67.36 20.54C67.845 20.54 67.42 20.9 67.3125 20.9C67.395 20.9325 67.2975 21.2225 67.2975 21.3175C67.7475 21.3125 67.755 21.0375 68.0775 20.9575C68.01 21.36 67.56 21.4375 68 21.7825C68.2325 21.965 68.47 22.18 68.3775 22.4575C68.95 22.4575 69.035 23.0075 68.9175 23.655C69.235 23.655 69.22 23.67 69.22 23.3525C69.5275 23.4375 69.505 23.715 69.22 23.715C68.935 24.2775 68.1875 24.2525 67.6575 24.2525C67.6525 23.8175 67.57 23.79 67.1675 23.9125C66.6175 24.08 67.0475 23.475 67.0575 23.175C67.1175 23.175 68.305 23.23 67.5975 22.995C67.56 22.35 67.415 22.1575 66.8175 22.1575C66.8175 21.7175 66.6625 21.75 66.59 21.2675C66.4875 20.555 67.1475 21.3175 67.36 20.54ZM67.1775 24.4325C67.1775 24.58 66.8775 24.6975 66.8175 24.49C66.875 24.51 66.8975 24.49 66.875 24.4325C66.9775 24.4325 67.08 24.4325 67.1775 24.4325ZM62.25 18H59.75C59.06 18 58.5 17.44 58.5 16.75C58.5 16.06 59.06 15.5 59.75 15.5H62.25C62.94 15.5 63.5 16.06 63.5 16.75C63.5 17.44 62.94 18 62.25 18ZM47.685 40.125C47.825 40.125 47.9875 40.18 47.9875 40.305C47.805 40.305 47.57 40.4775 47.685 40.125ZM45.405 40.2475C45.305 40.4375 44.495 40.405 44.3825 40.185C44.6825 40.185 44.915 40.3075 45.2225 40.185C45.2225 40.02 45.085 39.8875 44.9825 39.7075C45.31 39.7075 45.6775 39.9575 46.125 39.9475C46.125 39.67 46.0025 40.0075 46.125 39.6475C46.3125 39.695 46.765 40.125 46.785 40.305C46.1275 40.235 46.0975 40.2475 45.405 40.2475ZM42.76 38.81C42.4525 38.81 41.86 38.5425 41.6775 38.27C41.975 38.2825 42.27 38.405 42.4575 38.09C43.22 38.1675 43.2875 38.6925 43.9 38.6925C44.015 38.895 44.67 39.36 44.0375 39.42C43.56 39.465 42.96 39.205 42.76 38.81ZM43.24 40.4875C43.0175 40.4875 42.65 40.585 42.82 40.125C43.115 40.165 43.255 40.2875 43.24 40.4875ZM43.66 40.4275C43.54 40.4475 43.42 40.4675 43.3 40.4875C43.335 40.21 43.5975 39.9 43.66 40.4275ZM45.8825 43.06C45.835 43.2275 45.8425 43.2375 45.645 43.2375C45.665 43.16 45.6825 43.0825 45.7025 43C45.765 43.02 45.8225 43.04 45.8825 43.06ZM40.475 38.09C40.5325 38.11 40.595 38.1325 40.655 38.15C40.7325 38.4475 40.895 38.3 41.075 38.21C41.075 38.5575 40.27 38.6575 40.475 38.09Z" fill="url(#paint2_linear_872_12)"/>
</g>
<defs>
<linearGradient id="paint0_linear_872_12" x1="6.35294" y1="1" x2="6.35294" y2="78.4793" gradientUnits="userSpaceOnUse">
<stop stop-color="#05B15F" stop-opacity="0.9"/>
<stop offset="1" stop-color="#FFFB03" stop-opacity="0.9"/>
</linearGradient>
<linearGradient id="paint1_linear_872_12" x1="106.353" y1="0" x2="106.353" y2="77.4793" gradientUnits="userSpaceOnUse">
<stop stop-color="#05B15F" stop-opacity="0.9"/>
<stop offset="1" stop-color="#FFFB03" stop-opacity="0.9"/>
</linearGradient>
<linearGradient id="paint2_linear_872_12" x1="56" y1="0.5" x2="56" y2="80.5" gradientUnits="userSpaceOnUse">
<stop stop-color="#05B15F" stop-opacity="0.9"/>
<stop offset="1" stop-color="#FFFB03" stop-opacity="0.9"/>
</linearGradient>
<clipPath id="clip0_872_12">
<rect width="80" height="80" fill="white" transform="translate(16 0.5)"/>
</clipPath>
</defs>
</svg>
