<svg width="25" height="25" viewBox="0 0 25 25" fill="none" xmlns="http://www.w3.org/2000/svg">
<path d="M22.6562 3.125H2.34375C1.05469 3.125 0 4.17969 0 5.46875V21.0938C0 22.3828 1.05469 23.4375 2.34375 23.4375H22.6562C23.9453 23.4375 25 22.3828 25 21.0938V5.46875C25 4.17969 23.9453 3.125 22.6562 3.125ZM9.73516 13.4367L3.125 18.5852V6.33828L9.73516 13.4367ZM4.30625 6.25H20.6938L12.5 12.4023L4.30625 6.25ZM9.99219 13.7133L12.5 16.4062L15.0078 13.7133L20.1484 20.3125H4.85234L9.99297 13.7133H9.99219ZM15.2648 13.4367L21.875 6.33828V18.5852L15.2648 13.4367Z" fill="#5A0319"/>
</svg>
