<svg width="46" height="40" viewBox="0 0 46 40" fill="none" xmlns="http://www.w3.org/2000/svg">
<path d="M40.037 40C41.5176 40 42.5926 39.1858 42.5926 38.0645V1.93548C42.5926 0.814194 41.5176 0 40.037 0H5.96296C4.48244 0 3.40741 0.814194 3.40741 1.93548V3.44129C3.40741 3.79742 3.78904 4.08645 4.25926 4.08645C4.72948 4.08645 5.11111 3.79742 5.11111 3.44129V1.93548C5.11111 1.53161 5.4297 1.29032 5.96296 1.29032H13.7353V38.7097H5.96296C5.4297 38.7097 5.11111 38.4684 5.11111 38.0645V36.8813C5.11111 36.5252 4.72948 36.2361 4.25926 36.2361C3.78904 36.2361 3.40741 36.5252 3.40741 36.8813V38.0645C3.40741 39.1858 4.48244 40 5.96296 40H40.037ZM15.3333 1.29032H40.037C40.5703 1.29032 40.8889 1.53161 40.8889 1.93548V38.0645C40.8889 38.4684 40.5703 38.7097 40.037 38.7097H15.3333V1.29032ZM46 36.7742V3.22581C46 2.86968 45.6184 2.58065 45.1481 2.58065C44.6779 2.58065 44.2963 2.86968 44.2963 3.22581V36.7742C44.2963 37.1303 44.6779 37.4194 45.1481 37.4194C45.6184 37.4194 46 37.1303 46 36.7742ZM0.851852 12.9032H7.66667C8.13689 12.9032 8.51852 12.6142 8.51852 12.2581C8.51852 11.9019 8.13689 11.6129 7.66667 11.6129H0.851852C0.38163 11.6129 0 11.9019 0 12.2581C0 12.6142 0.38163 12.9032 0.851852 12.9032ZM0.851852 7.74194H7.66667C8.13689 7.74194 8.51852 7.4529 8.51852 7.09677C8.51852 6.74064 8.13689 6.45161 7.66667 6.45161H0.851852C0.38163 6.45161 0 6.74064 0 7.09677C0 7.4529 0.38163 7.74194 0.851852 7.74194ZM0.851852 18.0645H7.66667C8.13689 18.0645 8.51852 17.7755 8.51852 17.4194C8.51852 17.0632 8.13689 16.7742 7.66667 16.7742H0.851852C0.38163 16.7742 0 17.0632 0 17.4194C0 17.7755 0.38163 18.0645 0.851852 18.0645ZM0.851852 28.3871H7.66667C8.13689 28.3871 8.51852 28.0981 8.51852 27.7419C8.51852 27.3858 8.13689 27.0968 7.66667 27.0968H0.851852C0.38163 27.0968 0 27.3858 0 27.7419C0 28.0981 0.38163 28.3871 0.851852 28.3871ZM0.851852 23.2258H7.66667C8.13689 23.2258 8.51852 22.9368 8.51852 22.5806C8.51852 22.2245 8.13689 21.9355 7.66667 21.9355H0.851852C0.38163 21.9355 0 22.2245 0 22.5806C0 22.9368 0.38163 23.2258 0.851852 23.2258ZM0.851852 33.5484H7.66667C8.13689 33.5484 8.51852 33.2594 8.51852 32.9032C8.51852 32.5471 8.13689 32.2581 7.66667 32.2581H0.851852C0.38163 32.2581 0 32.5471 0 32.9032C0 33.2594 0.38163 33.5484 0.851852 33.5484Z" fill="url(#paint0_linear_155_827)"/>
<path d="M32.055 18.7943L30.6123 20.3152L37.4545 27.5283L36.0584 29L29.2163 21.7869L22.3741 29L20.978 27.5283L30.659 17.3225C30.2863 16.5375 30.232 15.6216 30.4961 14.5748C30.7602 13.5281 31.2799 12.5958 32.055 11.7779C33.0168 10.764 34.0872 10.1834 35.2661 10.0362C36.445 9.88891 37.3913 10.1914 38.1048 10.9437C38.8184 11.6959 39.1054 12.7019 38.9657 13.9614C38.826 15.221 38.2753 16.3578 37.3135 17.3717C36.5377 18.1896 35.6533 18.7294 34.6604 18.991C33.6675 19.2527 32.7997 19.1871 32.055 18.7943ZM25.3528 20.7077L21.1637 16.2915C20.3879 15.4736 20 14.4921 20 13.347C20 12.2019 20.3879 11.2204 21.1637 10.4025L28.1449 17.713L25.3528 20.7077Z" fill="url(#paint1_linear_155_827)"/>
<defs>
<linearGradient id="paint0_linear_155_827" x1="23" y1="0" x2="23" y2="40" gradientUnits="userSpaceOnUse">
<stop stop-color="#05B15F" stop-opacity="0.9"/>
<stop offset="1" stop-color="#FFFB03" stop-opacity="0.9"/>
</linearGradient>
<linearGradient id="paint1_linear_155_827" x1="29.5" y1="10" x2="29.5" y2="29" gradientUnits="userSpaceOnUse">
<stop stop-color="#05B15F" stop-opacity="0.9"/>
<stop offset="1" stop-color="#FFFB03" stop-opacity="0.9"/>
</linearGradient>
</defs>
</svg>
